<svg version="1.1" id="Layer_1" xmlns="http://www.w3.org/2000/svg" xmlns:xlink="http://www.w3.org/1999/xlink" x="0px" y="0px"
	 width="100%" viewBox="0 0 312 314" enable-background="new 0 0 312 314" xml:space="preserve">
<path fill="#FEFFFF" opacity="1.000000" stroke="none" 
	d="
M172.000000,315.000000 
	C114.666695,315.000000 57.833389,315.000000 1.000061,315.000000 
	C1.000041,210.333405 1.000041,105.666824 1.000020,1.000173 
	C104.999878,1.000116 208.999756,1.000116 312.999725,1.000058 
	C312.999817,105.666496 312.999817,210.332993 312.999908,314.999756 
	C266.166656,315.000000 219.333328,315.000000 172.000000,315.000000 
M11.909063,184.584366 
	C13.715010,192.176727 14.964352,199.953720 17.412119,207.333191 
	C45.012238,290.541290 136.189514,331.924225 217.157120,298.144073 
	C278.885986,272.390411 316.793060,205.513779 306.712860,139.564285 
	C300.867310,101.319954 283.378174,69.327354 253.210815,44.847332 
	C217.672531,16.008924 176.873581,5.039937 132.039871,13.714682 
	C76.651512,24.431610 38.962181,57.462002 18.777431,110.006233 
	C9.650294,133.765686 7.798401,158.549789 11.909063,184.584366 
z"/>
<path fill="#659ADB" opacity="1.000000" stroke="none" 
	d="
M11.838335,184.153366 
	C7.798401,158.549789 9.650294,133.765686 18.777431,110.006233 
	C38.962181,57.462002 76.651512,24.431610 132.039871,13.714682 
	C176.873581,5.039937 217.672531,16.008924 253.210815,44.847332 
	C283.378174,69.327354 300.867310,101.319954 306.712860,139.564285 
	C316.793060,205.513779 278.885986,272.390411 217.157120,298.144073 
	C136.189514,331.924225 45.012238,290.541290 17.412119,207.333191 
	C14.964352,199.953720 13.715010,192.176727 11.838335,184.153366 
M111.968956,123.488350 
	C111.968956,118.058861 111.968956,112.629364 111.968956,107.168915 
	C104.293282,107.168915 97.374603,107.168915 90.089005,107.168915 
	C90.163696,108.863281 90.224495,110.242439 90.307541,112.126282 
	C95.429222,112.126282 100.183479,112.126282 105.145798,112.126282 
	C105.454163,118.134682 106.230080,123.813683 101.297394,127.843048 
	C93.125244,134.518646 78.900848,130.739517 75.417084,120.787308 
	C72.597015,112.731117 72.624100,104.296638 75.514870,96.274338 
	C79.487900,85.248589 96.600212,82.233971 104.137810,91.235031 
	C106.927582,94.566444 108.639229,94.358582 110.944641,91.373848 
	C107.873230,78.173409 81.671005,76.407753 72.590240,88.646484 
	C65.429161,98.297928 64.431801,115.482513 70.589790,126.010727 
	C76.130592,135.483734 87.768257,139.517517 97.811295,135.073624 
	C100.659065,133.813522 103.006592,131.422852 105.708099,129.460190 
	C105.926178,131.709152 106.125519,133.764801 106.348877,136.068130 
	C108.384758,135.934937 109.972137,135.831070 111.968925,135.700424 
	C111.968925,131.742462 111.968925,128.111267 111.968956,123.488350 
M124.979698,218.747971 
	C124.979698,226.687195 124.979698,234.626419 124.979698,242.685669 
	C127.442711,242.685669 129.328217,242.685669 131.258392,242.685669 
	C131.258392,224.348221 131.258392,206.343277 131.258392,188.300903 
	C129.055832,188.300903 127.290794,188.300903 124.935776,188.300903 
	C124.935776,195.607956 124.935776,202.666718 124.935776,209.802078 
	C115.296593,209.802078 106.254646,209.802078 96.551758,209.802078 
	C96.551758,202.398895 96.551758,195.355392 96.551758,188.283295 
	C94.111252,188.283295 92.340446,188.283295 90.303207,188.283295 
	C90.303207,206.557419 90.303207,224.583801 90.303207,242.665802 
	C92.512810,242.665802 94.398018,242.665802 96.774094,242.665802 
	C96.774094,233.746445 96.774094,225.163895 96.774094,216.066132 
	C106.021690,216.066132 114.785187,216.039154 123.547203,216.140167 
	C124.020836,216.145615 124.482109,217.223740 124.979698,218.747971 
M200.041611,191.594849 
	C200.041611,189.497421 200.041611,187.399994 200.041611,184.959763 
	C197.613342,185.084900 195.901978,185.173096 194.250671,185.258179 
	C194.250671,204.740189 194.250671,223.633469 194.250671,242.710632 
	C196.255386,242.710632 197.990509,242.710632 199.699936,242.710632 
	C199.955688,241.023224 200.167511,239.625778 200.463333,237.674057 
	C201.528107,238.464890 202.166641,238.892120 202.753098,239.381699 
	C213.057068,247.984207 227.063660,244.038864 230.134048,231.011154 
	C231.482666,225.288956 231.425812,218.703934 230.051559,212.980209 
	C227.016434,200.338928 212.394974,196.653015 202.895554,205.525116 
	C202.154556,206.217178 201.289917,206.776871 200.041656,207.737549 
	C200.041656,202.203873 200.041656,197.387634 200.041611,191.594849 
M130.406601,147.320572 
	C127.178261,147.512619 123.949928,147.704681 120.260559,147.924164 
	C120.035080,149.030319 119.727287,150.540329 119.434158,151.978424 
	C129.829681,155.619934 136.493835,152.909470 140.470596,143.378021 
	C143.863220,135.246582 146.873154,126.955368 150.046417,118.732536 
	C153.077652,110.877708 156.101227,103.019920 159.165970,95.065269 
	C155.016998,93.550659 152.843430,94.447380 151.499130,98.343483 
	C148.571198,106.829254 145.278107,115.189575 142.092773,123.585419 
	C141.614594,124.845818 140.912674,126.021309 139.808792,128.262177 
	C135.635818,117.533562 131.740387,108.023247 128.273071,98.359314 
	C126.856834,94.412071 124.699959,93.634727 120.605644,95.079155 
	C121.109993,96.718430 121.486961,98.279083 122.063072,99.762405 
	C126.157387,110.304237 129.968155,120.973480 134.533173,131.308899 
	C137.382462,137.759827 135.598938,142.477234 130.406601,147.320572 
M236.093414,94.041885 
	C223.527634,93.652802 217.058655,98.239792 214.570984,109.302887 
	C212.024689,120.626549 216.622803,131.764984 225.252182,135.176926 
	C236.639999,139.679504 247.778427,135.049866 251.052307,124.064400 
	C254.878998,111.224022 251.151932,96.392166 236.093414,94.041885 
M179.809341,211.565186 
	C179.808807,209.399948 179.726837,207.230835 179.829544,205.070511 
	C179.943359,202.676453 179.155319,200.769547 176.568802,201.482910 
	C175.225815,201.853302 173.466034,203.738998 173.366196,205.052078 
	C172.988449,210.020111 173.392609,215.042511 173.155060,220.027924 
	C172.966797,223.979126 172.830521,228.083237 171.659073,231.800507 
	C170.059830,236.875183 164.769592,239.136475 158.928894,237.971024 
	C153.782852,236.944199 152.728165,233.076889 152.726715,228.575790 
	C152.724350,221.247375 152.731369,213.918915 152.702911,206.590576 
	C152.681229,201.005234 152.354538,200.774643 146.332520,202.050598 
	C146.332520,212.099686 145.936783,222.236343 146.471741,232.323654 
	C146.827850,239.038483 150.791946,242.649323 157.150528,243.691513 
	C163.691498,244.763580 169.115692,242.631851 173.453201,236.116684 
	C173.801285,239.242264 173.993469,240.967941 174.187973,242.714462 
	C176.140732,242.714462 177.720428,242.714462 179.809021,242.714462 
	C179.809021,232.461548 179.809021,222.503571 179.809341,211.565186 
M189.425858,93.933739 
	C183.448410,93.321770 179.102570,96.370796 175.276413,101.288589 
	C174.923294,98.548851 174.698090,96.801590 174.432022,94.737381 
	C172.485397,94.871826 170.919769,94.979950 168.983994,95.113640 
	C168.983994,102.138863 168.983994,108.770203 168.983994,115.401550 
	C168.983994,122.167488 168.983994,128.933426 168.983994,136.032928 
	C171.397217,135.910110 173.111572,135.822876 175.041382,135.724655 
	C175.041382,129.011383 174.928436,122.862396 175.088409,116.720520 
	C175.169998,113.588020 175.391678,110.378235 176.167938,107.362434 
	C177.573990,101.899956 183.221039,98.468597 188.876144,99.182770 
	C194.223480,99.858070 196.441238,102.653664 196.813904,109.408234 
	C196.951218,111.897247 196.856583,114.399384 196.857910,116.895531 
	C196.861267,123.155159 196.859024,129.414780 196.859024,136.027313 
	C199.307022,135.898178 201.014267,135.808105 202.848633,135.711334 
	C202.848633,125.650352 203.146637,116.165077 202.758057,106.708015 
	C202.423279,98.560043 198.432510,94.876122 189.425858,93.933739 
z"/>
<path fill="#FAFCFE" opacity="1.000000" stroke="none" 
	d="
M111.968941,123.984207 
	C111.968925,128.111267 111.968925,131.742462 111.968925,135.700424 
	C109.972137,135.831070 108.384758,135.934937 106.348877,136.068130 
	C106.125519,133.764801 105.926178,131.709152 105.708099,129.460190 
	C103.006592,131.422852 100.659065,133.813522 97.811295,135.073624 
	C87.768257,139.517517 76.130592,135.483734 70.589790,126.010727 
	C64.431801,115.482513 65.429161,98.297928 72.590240,88.646484 
	C81.671005,76.407753 107.873230,78.173409 110.944641,91.373848 
	C108.639229,94.358582 106.927582,94.566444 104.137810,91.235031 
	C96.600212,82.233971 79.487900,85.248589 75.514870,96.274338 
	C72.624100,104.296638 72.597015,112.731117 75.417084,120.787308 
	C78.900848,130.739517 93.125244,134.518646 101.297394,127.843048 
	C106.230080,123.813683 105.454163,118.134682 105.145798,112.126282 
	C100.183479,112.126282 95.429222,112.126282 90.307541,112.126282 
	C90.224495,110.242439 90.163696,108.863281 90.089005,107.168915 
	C97.374603,107.168915 104.293282,107.168915 111.968956,107.168915 
	C111.968956,112.629364 111.968956,118.058861 111.968941,123.984207 
z"/>
<path fill="#F7FAFD" opacity="1.000000" stroke="none" 
	d="
M124.964417,218.275269 
	C124.482109,217.223740 124.020836,216.145615 123.547203,216.140167 
	C114.785187,216.039154 106.021690,216.066132 96.774094,216.066132 
	C96.774094,225.163895 96.774094,233.746445 96.774094,242.665802 
	C94.398018,242.665802 92.512810,242.665802 90.303207,242.665802 
	C90.303207,224.583801 90.303207,206.557419 90.303207,188.283295 
	C92.340446,188.283295 94.111252,188.283295 96.551758,188.283295 
	C96.551758,195.355392 96.551758,202.398895 96.551758,209.802078 
	C106.254646,209.802078 115.296593,209.802078 124.935776,209.802078 
	C124.935776,202.666718 124.935776,195.607956 124.935776,188.300903 
	C127.290794,188.300903 129.055832,188.300903 131.258392,188.300903 
	C131.258392,206.343277 131.258392,224.348221 131.258392,242.685669 
	C129.328217,242.685669 127.442711,242.685669 124.979698,242.685669 
	C124.979698,234.626419 124.979698,226.687195 124.964417,218.275269 
z"/>
<path fill="#FBFCFE" opacity="1.000000" stroke="none" 
	d="
M200.041626,192.083130 
	C200.041656,197.387634 200.041656,202.203873 200.041656,207.737549 
	C201.289917,206.776871 202.154556,206.217178 202.895554,205.525116 
	C212.394974,196.653015 227.016434,200.338928 230.051559,212.980209 
	C231.425812,218.703934 231.482666,225.288956 230.134048,231.011154 
	C227.063660,244.038864 213.057068,247.984207 202.753098,239.381699 
	C202.166641,238.892120 201.528107,238.464890 200.463333,237.674057 
	C200.167511,239.625778 199.955688,241.023224 199.699936,242.710632 
	C197.990509,242.710632 196.255386,242.710632 194.250671,242.710632 
	C194.250671,223.633469 194.250671,204.740189 194.250671,185.258179 
	C195.901978,185.173096 197.613342,185.084900 200.041611,184.959763 
	C200.041611,187.399994 200.041611,189.497421 200.041626,192.083130 
M200.058456,221.633652 
	C200.427658,224.423630 200.394104,227.345276 201.253769,229.974915 
	C202.820831,234.768372 206.153290,237.775513 211.488235,238.087372 
	C219.052444,238.529526 223.444168,235.112747 224.807434,227.643143 
	C226.725540,217.133514 223.529327,208.931839 216.562027,206.977219 
	C214.714081,206.458801 212.599182,206.296036 210.714417,206.611862 
	C203.895386,207.754471 201.397873,211.224274 200.058456,221.633652 
z"/>
<path fill="#F9FBFE" opacity="1.000000" stroke="none" 
	d="
M130.763870,147.142838 
	C135.598938,142.477234 137.382462,137.759827 134.533173,131.308899 
	C129.968155,120.973480 126.157387,110.304237 122.063072,99.762405 
	C121.486961,98.279083 121.109993,96.718430 120.605644,95.079155 
	C124.699959,93.634727 126.856834,94.412071 128.273071,98.359314 
	C131.740387,108.023247 135.635818,117.533562 139.808792,128.262177 
	C140.912674,126.021309 141.614594,124.845818 142.092773,123.585419 
	C145.278107,115.189575 148.571198,106.829254 151.499130,98.343483 
	C152.843430,94.447380 155.016998,93.550659 159.165970,95.065269 
	C156.101227,103.019920 153.077652,110.877708 150.046417,118.732536 
	C146.873154,126.955368 143.863220,135.246582 140.470596,143.378021 
	C136.493835,152.909470 129.829681,155.619934 119.434158,151.978424 
	C119.727287,150.540329 120.035080,149.030319 120.260559,147.924164 
	C123.949928,147.704681 127.178261,147.512619 130.763870,147.142838 
z"/>
<path fill="#F9FBFE" opacity="1.000000" stroke="none" 
	d="
M236.525116,94.071960 
	C251.151932,96.392166 254.878998,111.224022 251.052307,124.064400 
	C247.778427,135.049866 236.639999,139.679504 225.252182,135.176926 
	C216.622803,131.764984 212.024689,120.626549 214.570984,109.302887 
	C217.058655,98.239792 223.527634,93.652802 236.525116,94.071960 
M223.308807,104.006119 
	C219.669052,109.998672 220.112961,116.511490 221.596100,122.837219 
	C222.999268,128.821869 227.375137,131.320190 234.106308,131.093231 
	C240.080811,130.891785 243.817993,128.155991 244.988373,122.146706 
	C245.735474,118.310684 246.156677,114.145638 245.483017,110.348259 
	C243.466125,98.979340 232.506149,95.626099 223.308807,104.006119 
z"/>
<path fill="#F3F7FC" opacity="1.000000" stroke="none" 
	d="
M179.809174,212.055389 
	C179.809021,222.503571 179.809021,232.461548 179.809021,242.714462 
	C177.720428,242.714462 176.140732,242.714462 174.187973,242.714462 
	C173.993469,240.967941 173.801285,239.242264 173.453201,236.116684 
	C169.115692,242.631851 163.691498,244.763580 157.150528,243.691513 
	C150.791946,242.649323 146.827850,239.038483 146.471741,232.323654 
	C145.936783,222.236343 146.332520,212.099686 146.332520,202.050598 
	C152.354538,200.774643 152.681229,201.005234 152.702911,206.590576 
	C152.731369,213.918915 152.724350,221.247375 152.726715,228.575790 
	C152.728165,233.076889 153.782852,236.944199 158.928894,237.971024 
	C164.769592,239.136475 170.059830,236.875183 171.659073,231.800507 
	C172.830521,228.083237 172.966797,223.979126 173.155060,220.027924 
	C173.392609,215.042511 172.988449,210.020111 173.366196,205.052078 
	C173.466034,203.738998 175.225815,201.853302 176.568802,201.482910 
	C179.155319,200.769547 179.943359,202.676453 179.829544,205.070511 
	C179.726837,207.230835 179.808807,209.399948 179.809174,212.055389 
z"/>
<path fill="#FCFDFE" opacity="1.000000" stroke="none" 
	d="
M189.856598,93.946594 
	C198.432510,94.876122 202.423279,98.560043 202.758057,106.708015 
	C203.146637,116.165077 202.848633,125.650352 202.848633,135.711334 
	C201.014267,135.808105 199.307022,135.898178 196.859024,136.027313 
	C196.859024,129.414780 196.861267,123.155159 196.857910,116.895531 
	C196.856583,114.399384 196.951218,111.897247 196.813904,109.408234 
	C196.441238,102.653664 194.223480,99.858070 188.876144,99.182770 
	C183.221039,98.468597 177.573990,101.899956 176.167938,107.362434 
	C175.391678,110.378235 175.169998,113.588020 175.088409,116.720520 
	C174.928436,122.862396 175.041382,129.011383 175.041382,135.724655 
	C173.111572,135.822876 171.397217,135.910110 168.983994,136.032928 
	C168.983994,128.933426 168.983994,122.167488 168.983994,115.401550 
	C168.983994,108.770203 168.983994,102.138863 168.983994,95.113640 
	C170.919769,94.979950 172.485397,94.871826 174.432022,94.737381 
	C174.698090,96.801590 174.923294,98.548851 175.276413,101.288589 
	C179.102570,96.370796 183.448410,93.321770 189.856598,93.946594 
z"/>
<path fill="#679CDC" opacity="1.000000" stroke="none" 
	d="
M200.068893,221.200562 
	C201.397873,211.224274 203.895386,207.754471 210.714417,206.611862 
	C212.599182,206.296036 214.714081,206.458801 216.562027,206.977219 
	C223.529327,208.931839 226.725540,217.133514 224.807434,227.643143 
	C223.444168,235.112747 219.052444,238.529526 211.488235,238.087372 
	C206.153290,237.775513 202.820831,234.768372 201.253769,229.974915 
	C200.394104,227.345276 200.427658,224.423630 200.068893,221.200562 
z"/>
<path fill="#679CDC" opacity="1.000000" stroke="none" 
	d="
M223.564331,103.713791 
	C232.506149,95.626099 243.466125,98.979340 245.483017,110.348259 
	C246.156677,114.145638 245.735474,118.310684 244.988373,122.146706 
	C243.817993,128.155991 240.080811,130.891785 234.106308,131.093231 
	C227.375137,131.320190 222.999268,128.821869 221.596100,122.837219 
	C220.112961,116.511490 219.669052,109.998672 223.564331,103.713791 
z"/>
</svg>